<?xml version="1.0" encoding="utf-8"?>
<!-- Generator: Adobe Illustrator 16.0.3, SVG Export Plug-In . SVG Version: 6.00 Build 0)  -->
<!DOCTYPE svg PUBLIC "-//W3C//DTD SVG 1.1//EN" "http://www.w3.org/Graphics/SVG/1.1/DTD/svg11.dtd">
<svg version="1.1" id="Layer_1" xmlns="http://www.w3.org/2000/svg" xmlns:xlink="http://www.w3.org/1999/xlink" x="0px" y="0px"
	 width="63.93px" height="48.615px" viewBox="0 0 63.93 48.615" enable-background="new 0 0 63.93 48.615" xml:space="preserve">
<g>
	<path fill-opacity="0.1" d="M4,48.561h55.857c2.165,0,3.987-1.769,3.987-3.991V4.219c0-2.168-1.764-3.991-3.987-3.991H4
		c-2.165,0-3.988,1.765-3.988,3.991v40.351C0.012,46.792,1.781,48.561,4,48.561L4,48.561z"/>
	<path opacity="0.1" fill="#FFFFFF" enable-background="new    " d="M55.867,48.561l-23.88-19.209l-0.171-1.025l24.62-17.725
		l0.061,37.104L55.867,48.561z"/>
	<path fill="#E3E3E3" d="M3.999,48.561c-2.224,0-3.988-1.769-3.988-3.991V4.16c0-2.223,1.765-2.624,3.988-2.624
		c2.223,0,3.989,0.456,3.989,2.624v44.4H3.999L3.999,48.561z"/>
	<path fill="#E3E3E3" d="M3.999,2.109c2.851,0,3.421,0.854,3.421,2.051v43.827H3.999c-1.883,0-3.421-1.536-3.421-3.418V4.16
		C0.578,2.906,1.15,2.109,3.999,2.109L3.999,2.109z M3.999,1.536c-2.224,0-3.988,0.456-3.988,2.624v40.409
		c0,2.223,1.765,3.991,3.988,3.991h3.989V4.16C7.988,1.938,6.222,1.536,3.999,1.536L3.999,1.536L3.999,1.536z"/>
	<path fill="#E3E3E3" d="M59.855,48.561h-3.988V4.047c0-2.224,1.766-2.511,3.988-2.511c2.22,0,3.989,0.287,3.989,2.511v40.582
		C63.844,46.792,62.075,48.561,59.855,48.561L59.855,48.561z"/>
	<path fill="#E3E3E3" d="M59.855,2.109c2.563,0,3.415,0.511,3.415,1.938v40.582c0,1.878-1.537,3.418-3.415,3.418h-3.422v-44
		C56.433,2.565,57.289,2.109,59.855,2.109L59.855,2.109z M59.855,1.536c-2.223,0-3.988,0.287-3.988,2.511v44.568h3.988
		c2.22,0,3.989-1.765,3.989-3.986V4.047C63.844,1.823,62.075,1.536,59.855,1.536L59.855,1.536L59.855,1.536z"/>
	<path fill="#E3E3E3" d="M31.869,29.352L1.718,7.465C-0.05,6.156-0.561,3.647,0.75,1.88c1.31-1.766,3.874-2.166,5.7-0.856
		l25.476,18.525l25.65-18.753c1.768-1.309,4.272-0.909,5.587,0.914c1.307,1.767,0.908,4.272-0.914,5.585L31.869,29.352
		L31.869,29.352z"/>
	<path fill="#E3E3E3" d="M59.855,0.569L59.855,0.569c1.081,0,2.106,0.513,2.788,1.423c1.086,1.54,0.744,3.649-0.736,4.791
		L31.869,28.667L2.06,7.01C0.521,5.869,0.124,3.703,1.205,2.225c0.628-0.858,1.709-1.429,2.85-1.429
		c0.743,0,1.483,0.228,2.051,0.687l25.421,18.467l0.343,0.228l0.341-0.228L57.802,1.195C58.429,0.796,59.111,0.569,59.855,0.569
		L59.855,0.569z M59.855,0c-0.799,0-1.654,0.228-2.34,0.741l-25.646,18.75L6.395,0.97C5.709,0.454,4.854,0.228,3.999,0.228
		c-1.252,0-2.508,0.568-3.307,1.652C-0.561,3.647-0.05,6.156,1.718,7.465l30.151,21.943L62.19,7.295
		c1.768-1.313,2.166-3.763,0.914-5.585C62.301,0.569,61.106,0,59.855,0L59.855,0L59.855,0z"/>
</g>
</svg>
