<?xml version="1.0" encoding="utf-8"?>
<!-- Generator: Adobe Illustrator 16.0.3, SVG Export Plug-In . SVG Version: 6.00 Build 0)  -->
<!DOCTYPE svg PUBLIC "-//W3C//DTD SVG 1.1//EN" "http://www.w3.org/Graphics/SVG/1.1/DTD/svg11.dtd">
<svg version="1.1" id="Layer_1" xmlns="http://www.w3.org/2000/svg" xmlns:xlink="http://www.w3.org/1999/xlink" x="0px" y="0px"
	 width="52.42px" height="52.829px" viewBox="0 0 52.42 52.829" enable-background="new 0 0 52.42 52.829" xml:space="preserve">
<g>
	<g>
		<g>
			<path fill="#E3E3E3" d="M26.688,0C12.474,0,0.951,11.521,0.951,25.734c0,4.859,1.349,9.406,3.693,13.287L0,52.829l14.247-4.564
				c3.688,2.041,7.927,3.203,12.44,3.203c14.213,0,25.732-11.521,25.732-25.733C52.42,11.521,40.9,0,26.688,0z M26.688,47.367
				c-4.396,0-8.488-1.315-11.905-3.577l-8.313,2.662l2.703-8.034C6.581,34.853,5.05,30.467,5.05,25.734
				c0-11.933,9.707-21.637,21.638-21.637c11.929,0,21.634,9.704,21.634,21.637C48.321,37.664,38.616,47.367,26.688,47.367z"/>
		</g>
	</g>
	<path fill="#E3E3E3" d="M20.65,15.09c-0.416-1.004-0.736-1.038-1.379-1.07c-0.223-0.009-0.463-0.021-0.725-0.021
		c-0.83,0-1.689,0.244-2.208,0.776c-0.63,0.645-2.206,2.153-2.206,5.26c0,3.104,2.26,6.103,2.573,6.525
		c0.317,0.42,4.411,6.882,10.777,9.519c4.972,2.062,6.446,1.876,7.58,1.63c1.65-0.359,3.723-1.575,4.248-3.048
		c0.527-1.473,0.527-2.738,0.369-2.999c-0.158-0.264-0.579-0.42-1.21-0.737c-0.631-0.315-3.731-1.839-4.311-2.052
		c-0.578-0.209-1.113-0.145-1.557,0.471c-0.615,0.851-1.205,1.723-1.695,2.24c-0.382,0.407-0.999,0.462-1.531,0.237
		c-0.698-0.298-2.662-0.982-5.073-3.131c-1.875-1.673-3.14-3.736-3.51-4.369c-0.368-0.633-0.031-1.008,0.251-1.351
		c0.324-0.394,0.623-0.674,0.939-1.04c0.314-0.369,0.489-0.567,0.7-0.986c0.21-0.42,0.068-0.855-0.089-1.173
		C22.438,19.456,21.175,16.352,20.65,15.09z"/>
</g>
</svg>
