<?xml version="1.0" encoding="utf-8"?>
<!-- Generator: Adobe Illustrator 16.0.3, SVG Export Plug-In . SVG Version: 6.00 Build 0)  -->
<!DOCTYPE svg PUBLIC "-//W3C//DTD SVG 1.1//EN" "http://www.w3.org/Graphics/SVG/1.1/DTD/svg11.dtd">
<svg version="1.1" id="Layer_1" xmlns="http://www.w3.org/2000/svg" xmlns:xlink="http://www.w3.org/1999/xlink" x="0px" y="0px"
	 width="51.883px" height="49.576px" viewBox="0 0 51.883 49.576" enable-background="new 0 0 51.883 49.576" xml:space="preserve">
<g>
	<path id="LinkedIn_1_" fill="#E3E3E3" d="M51.883,30.393v19.184H40.764V31.681c0-4.497-1.609-7.567-5.633-7.567
		c-3.078,0-4.902,2.069-5.709,4.071c-0.291,0.712-0.367,1.708-0.367,2.711v18.681H17.93c0,0,0.152-30.313,0-33.45h11.125v4.738
		c-0.027,0.036-0.057,0.074-0.074,0.109h0.074v-0.109c1.475-2.273,4.115-5.526,10.021-5.526
		C46.396,15.338,51.883,20.117,51.883,30.393z M6.291,0C2.488,0,0,2.496,0,5.779c0,3.208,2.416,5.779,6.145,5.779h0.076
		c3.879,0,6.291-2.569,6.291-5.779C12.438,2.496,10.1,0,6.291,0z M0.658,49.576h11.123v-33.45H0.658V49.576z"/>
</g>
</svg>
