<svg version="1.1" id="Layer_1" xmlns="http://www.w3.org/2000/svg" xmlns:xlink="http://www.w3.org/1999/xlink" x="0px" y="0px"
	 width="58.187px" height="58.334px" viewBox="0 0 58.187 58.334" enable-background="new 0 0 58.187 58.334" xml:space="preserve">
	<path fill="#FFFFFF" d="M29.163,0.019c0.015,0,0.029,0,0.045,0c-0.022,0-0.043,0-0.063,0c-0.015,0-0.03,0-0.044,0
		C29.122,0.019,29.143,0.019,29.163,0.019z"/>
	<path fill="#FFFFFF" d="M29.152,58.334c-0.022,0-0.045-0.002-0.065-0.002c0.294,0,0.587-0.013,0.879-0.021
		C29.696,58.324,29.425,58.334,29.152,58.334z"/>
	<path fill="#FFFFFF" d="M0,29.176C0,13.391,12.554,0.54,28.221,0.041C20.54,0.464,14.358,6.818,14.358,14.596
		c0,8.054,6.577,14.58,14.63,14.58c8.202,0,14.554,6.527,14.554,14.58c0,8.015-6.497,14.52-14.502,14.574
		C12.99,58.271,0,45.244,0,29.176z"/>
	<path fill="#020202" fill-opacity="0.3" d="M43.542,43.756c0-8.053-6.352-14.58-14.554-14.58c-8.054,0-14.63-6.526-14.63-14.58
		c0-7.777,6.182-14.148,13.863-14.572c0.269-0.016,0.54-0.043,0.814-0.043c0.02,0,0.042,0,0.065,0C29.114-0.02,29.13,0,29.145,0
		c16.052,0.06,29.042,13.098,29.042,29.168c0,15.785-12.554,28.637-28.221,29.139c-0.292,0.01-0.585-0.241-0.879-0.241
		c-0.022,0-0.045-0.257-0.065-0.257c-0.015,0-0.028,0-0.043,0c0.021,0,0.043,0.262,0.062,0.262
		C37.045,58.015,43.542,51.771,43.542,43.756z"/>
</svg>
