<?xml version="1.0" encoding="utf-8"?>
<!-- Generator: Adobe Illustrator 16.0.3, SVG Export Plug-In . SVG Version: 6.00 Build 0)  -->
<!DOCTYPE svg PUBLIC "-//W3C//DTD SVG 1.1//EN" "http://www.w3.org/Graphics/SVG/1.1/DTD/svg11.dtd">
<svg version="1.1" id="Layer_1" xmlns="http://www.w3.org/2000/svg" xmlns:xlink="http://www.w3.org/1999/xlink" x="0px" y="0px"
	 width="85.631px" height="116.109px" viewBox="0 0 85.631 116.109" enable-background="new 0 0 85.631 116.109"
	 xml:space="preserve">
<path fill="#3F403F" d="M27.578,89.791c0,0-4.435,2.579,3.159,3.451c9.201,1.051,13.903,0.902,24.04-1.017
	c0,0,2.672,1.672,6.395,3.118C38.438,105.083,9.725,94.778,27.578,89.791z M24.797,77.081c0,0-4.974,3.683,2.625,4.47
	c9.83,1.014,17.59,1.097,31.026-1.488c0,0,1.854,1.884,4.774,2.911C35.745,91.012,5.136,83.605,24.797,77.081z"/>
<path fill="#3F403F" fill-opacity="0.5" d="M48.213,55.516c5.604,6.451-1.47,12.25-1.47,12.25s14.223-7.339,7.69-16.535
	c-6.1-8.571-10.776-12.829,14.545-27.513C68.978,23.718,29.231,33.644,48.213,55.516L48.213,55.516z"/>
<path fill="#3F403F" d="M78.275,99.194c0,0,3.283,2.707-3.614,4.798c-13.118,3.975-54.607,5.172-66.132,0.162
	c-4.138-1.804,3.628-4.303,6.072-4.834c2.548-0.547,4.003-0.448,4.003-0.448c-4.608-3.244-29.778,6.372-12.784,9.128
	C52.164,115.513,90.295,104.617,78.275,99.194L78.275,99.194z M29.711,63.909c0,0-21.101,5.013-7.472,6.834
	c5.756,0.771,17.225,0.593,27.916-0.303c8.734-0.733,17.5-2.3,17.5-2.3s-3.078,1.317-5.306,2.838
	c-21.434,5.637-62.826,3.012-50.909-2.75C21.516,63.354,29.711,63.909,29.711,63.909L29.711,63.909z M67.567,85.069
	C89.351,73.751,79.278,62.872,72.25,64.34c-1.722,0.356-2.493,0.667-2.493,0.667s0.639-1.003,1.86-1.434
	c13.911-4.888,24.605,14.419-4.485,22.067C67.131,85.641,67.465,85.337,67.567,85.069z"/>
<path fill="#3F403F" fill-opacity="0.5" d="M54.433,0c0,0,12.063,12.071-11.442,30.623c-18.852,14.889-4.299,23.378-0.005,33.075
	c-11.006-9.927-19.078-18.665-13.663-26.8C37.272,24.96,59.3,19.168,54.433,0z"/>
<path fill="#3F403F" d="M31.853,115.745c20.908,1.336,53.019-0.745,53.779-10.637c0,0-1.461,3.748-17.278,6.724
	c-17.846,3.359-39.862,2.97-52.915,0.814C15.438,112.646,18.112,114.86,31.853,115.745L31.853,115.745z"/>
</svg>
