<?xml version="1.0" encoding="utf-8"?>
<!-- Generator: Adobe Illustrator 16.0.3, SVG Export Plug-In . SVG Version: 6.00 Build 0)  -->
<!DOCTYPE svg PUBLIC "-//W3C//DTD SVG 1.1//EN" "http://www.w3.org/Graphics/SVG/1.1/DTD/svg11.dtd">
<svg version="1.1" id="Layer_1" xmlns="http://www.w3.org/2000/svg" xmlns:xlink="http://www.w3.org/1999/xlink" x="0px" y="0px"
	 width="107.387px" height="107.388px" viewBox="0 0 107.387 107.388" enable-background="new 0 0 107.387 107.388"
	 xml:space="preserve">
<path fill="#3F403F" fill-opacity="0.5" d="M0,0h107.387v107.388H0V0z"/>
<path fill="#3F403F" d="M98.598,84.23c-0.788-4.9-3.983-9.015-13.442-12.853c-3.289-1.509-6.953-2.591-8.046-5.083
	c-0.388-1.449-0.439-2.264-0.194-3.144c0.706-2.847,4.105-3.737,6.799-2.917c1.733,0.581,3.378,1.917,4.368,4.052
	c4.634-3.001,4.625-2.982,7.86-5.045c-1.185-1.836-1.816-2.682-2.591-3.47c-2.788-3.113-6.585-4.715-12.659-4.593l-3.164,0.41
	c-3.031,0.765-5.921,2.356-7.615,4.489c-5.081,5.768-3.633,15.865,2.555,20.018c6.091,4.574,15.044,5.615,16.188,9.893
	c1.111,5.234-3.849,6.931-8.777,6.328c-3.634-0.756-5.657-2.603-7.843-5.959c-4.021,2.325-4.021,2.325-8.153,4.702
	c0.98,2.145,2.011,3.115,3.654,4.971c7.776,7.892,27.244,7.503,30.735-4.438C98.411,91.182,99.353,88.445,98.598,84.23L98.598,84.23
	z M58.378,51.811H48.335l-0.043,25.968c0,5.522,0.287,10.585-0.611,12.138c-1.472,3.053-5.278,2.676-7.013,2.082
	c-1.767-0.867-2.665-2.103-3.706-3.848c-0.285-0.502-0.5-0.889-0.574-0.92l-8.165,5.003c1.356,2.786,3.359,5.208,5.922,6.777
	c3.829,2.297,8.972,3.001,14.351,1.768c3.505-1.021,6.525-3.134,8.107-6.35c2.286-4.218,1.796-9.323,1.775-14.966
	C58.428,70.256,58.378,61.049,58.378,51.811z"/>
</svg>
