<?xml version="1.0" encoding="utf-8"?>
<!-- Generator: Adobe Illustrator 16.0.3, SVG Export Plug-In . SVG Version: 6.00 Build 0)  -->
<!DOCTYPE svg PUBLIC "-//W3C//DTD SVG 1.1//EN" "http://www.w3.org/Graphics/SVG/1.1/DTD/svg11.dtd">
<svg version="1.1" id="Layer_1" xmlns="http://www.w3.org/2000/svg" xmlns:xlink="http://www.w3.org/1999/xlink" x="0px" y="0px"
	 width="99.214px" height="97.562px" viewBox="0 0 99.214 97.562" enable-background="new 0 0 99.214 97.562" xml:space="preserve">
<g id="Layer_2_2_">
	<g>
		<g>
			<rect fill="#9F9F9F" width="99.214" height="97.562"/>
		</g>
	</g>
</g>
<g id="Layer_4_1_">
	<g>
		<g>
			<path fill="#3F403F" d="M23.977,27.498c0,0,6.271-0.167,11.435-0.167c5.218,0,8.939,1.229,11.437,3.387
				c2.389,2.038,3.997,5.512,3.997,9.469s-1.218,7.193-3.441,9.469c-2.887,2.938-6.25,4.676-11.992,4.916
				c-1.586,0.067-3.054,0.083-3.054,0.083v12.858h-8.381V27.498L23.977,27.498z M32.357,47.529c0.911,0.088,1.483,0.045,2.832,0.029
				c4.498-0.056,7.272-2.787,7.272-6.923c0-3.716-2.29-6.766-6.605-6.924c-1.72-0.064-3.499,0-3.499,0V47.529z"/>
			<g>
				<path fill="#3F403F" d="M54.046,58.554c1.688,1.039,5.675,2.592,8.394,2.592c2.778,0,3.921-0.982,3.921-2.506
					c0-1.527-0.902-3.133-4.345-4.293c-6.098-2.076-8.452-4.563-8.392-8.042c0-5.62,4.707-9.832,12.012-9.832
					c3.444,0,6.192,1.126,8.003,2.042v6.743c-1.331-0.732-5.163-2.372-7.699-2.372c-2.234,0-3.503,0.918-3.503,2.443
					c0,1.403,1.147,2.137,4.771,3.419c5.613,1.957,7.97,4.826,8.029,9.219c0,5.559-4.286,9.98-12.8,9.711
					c-2.923-0.093-6.16-1.246-8.392-2.468V58.554L54.046,58.554z"/>
			</g>
		</g>
	</g>
</g>
</svg>
