<?xml version="1.0" encoding="utf-8"?>
<!-- Generator: Adobe Illustrator 16.0.3, SVG Export Plug-In . SVG Version: 6.00 Build 0)  -->
<!DOCTYPE svg PUBLIC "-//W3C//DTD SVG 1.1//EN" "http://www.w3.org/Graphics/SVG/1.1/DTD/svg11.dtd">
<svg version="1.1" id="Layer_1" xmlns="http://www.w3.org/2000/svg" xmlns:xlink="http://www.w3.org/1999/xlink" x="0px" y="0px"
	 width="99.214px" height="97.147px" viewBox="0 0 99.214 97.147" enable-background="new 0 0 99.214 97.147" xml:space="preserve">
<g>
	<g>
		<g>
			<rect opacity="0.5" fill="#3F403F" width="99.214" height="97.147"/>
		</g>
		<g>
			<g>
				<path fill="#3F403F" d="M36.194,49.456h8.792l-4.396-17.054L36.194,49.456z M49.814,68.153L46.596,57.07H34.694l-3.22,11.083
					h-8.149l11.473-39.18v-4.293h10.941l13.084,43.473H49.814z M71.478,68.153h-8.794V35.084h8.794V68.153z M67.135,31.116
					c-2.518,0-4.558-2.018-4.558-4.504c0-2.488,2.04-4.504,4.558-4.504c2.517,0,4.559,2.016,4.559,4.504
					C71.694,29.099,69.652,31.116,67.135,31.116z"/>
			</g>
		</g>
	</g>
</g>
</svg>
