<?xml version="1.0" encoding="utf-8"?>
<!-- Generator: Adobe Illustrator 16.0.3, SVG Export Plug-In . SVG Version: 6.00 Build 0)  -->
<!DOCTYPE svg PUBLIC "-//W3C//DTD SVG 1.1//EN" "http://www.w3.org/Graphics/SVG/1.1/DTD/svg11.dtd">
<svg version="1.1" id="Layer_1" xmlns="http://www.w3.org/2000/svg" xmlns:xlink="http://www.w3.org/1999/xlink" x="0px" y="0px"
	 width="120.633px" height="69.623px" viewBox="0 0 120.633 69.623" enable-background="new 0 0 120.633 69.623"
	 xml:space="preserve">
<path fill="#3F403F" d="M32.122,18.36h-2.009V6.862c0-0.907,0.06-2.012,0.166-3.316h-0.045c-0.188,0.762-0.362,1.315-0.512,1.656
	L23.881,18.36h-0.979L17.051,5.298c-0.163-0.363-0.337-0.952-0.512-1.752h-0.044c0.063,0.685,0.098,1.799,0.098,3.341V18.36h-1.938
	V1.237h2.65l5.253,11.941c0.395,0.899,0.651,1.584,0.774,2.05h0.083c0.345-0.936,0.616-1.64,0.82-2.1l5.368-11.892h2.514V18.36
	H32.122z"/>
<path fill="#3F403F" d="M38.302,18.36H36.35V6.134h1.952V18.36z M38.64,1.75c0,0.359-0.127,0.662-0.379,0.909
	c-0.246,0.246-0.553,0.37-0.911,0.37c-0.348,0-0.652-0.12-0.9-0.359c-0.25-0.238-0.374-0.544-0.374-0.922
	c0-0.352,0.124-0.652,0.374-0.898c0.248-0.245,0.553-0.363,0.9-0.363c0.36,0,0.665,0.119,0.911,0.363
	C38.513,1.096,38.64,1.397,38.64,1.75"/>
<path fill="#3F403F" d="M50.504,17.796c-0.937,0.576-2.055,0.861-3.349,0.861c-1.756,0-3.167-0.583-4.243-1.745
	c-1.047-1.128-1.574-2.584-1.574-4.368c0-2.005,0.572-3.626,1.729-4.858c1.148-1.233,2.694-1.85,4.638-1.85
	c1.061,0,2.003,0.209,2.828,0.62v2.011c-0.912-0.641-1.876-0.96-2.914-0.96c-1.246,0-2.258,0.437-3.042,1.302
	c-0.818,0.891-1.233,2.074-1.233,3.558c0,1.422,0.378,2.549,1.131,3.379c0.755,0.828,1.756,1.242,3.024,1.242
	c1.067,0,2.069-0.351,3.006-1.051V17.796L50.504,17.796L50.504,17.796z"/>
<path fill="#3F403F" d="M59.845,8.116c-0.344-0.264-0.84-0.391-1.496-0.391c-0.793,0-1.462,0.354-2.005,1.073
	c-0.61,0.801-0.917,1.911-0.917,3.329v6.232h-1.959V6.133h1.959v2.521h0.047c0.287-0.892,0.732-1.578,1.327-2.065
	c0.553-0.442,1.181-0.668,1.873-0.668c0.519,0,0.907,0.056,1.171,0.167V8.116L59.845,8.116L59.845,8.116z"/>
<path fill="#3F403F" d="M70.753,12.27c0-1.565-0.353-2.764-1.059-3.584c-0.688-0.785-1.646-1.18-2.879-1.18
	c-1.219,0-2.194,0.398-2.926,1.195c-0.771,0.854-1.155,2.057-1.155,3.617c0,1.462,0.366,2.611,1.107,3.431
	c0.738,0.824,1.729,1.237,2.974,1.237c1.285,0,2.27-0.42,2.946-1.252C70.423,14.918,70.753,13.764,70.753,12.27 M72.76,12.2
	c0,1.948-0.55,3.515-1.647,4.688c-1.1,1.178-2.58,1.767-4.445,1.767c-1.834,0-3.297-0.589-4.366-1.767
	c-1.051-1.135-1.576-2.635-1.576-4.499c0-2.129,0.597-3.769,1.791-4.934c1.104-1.079,2.583-1.622,4.438-1.622
	c1.824,0,3.248,0.568,4.274,1.693C72.247,8.66,72.76,10.218,72.76,12.2"/>
<path fill="#3F403F" d="M82.467,15.09c0,1.002-0.374,1.83-1.122,2.491c-0.819,0.719-1.942,1.074-3.357,1.074
	c-1.156,0-2.171-0.243-3.031-0.736v-2.103c0.956,0.776,2.016,1.17,3.177,1.17c1.55,0,2.327-0.572,2.327-1.71
	c0-0.478-0.17-0.872-0.514-1.179c-0.344-0.313-1.014-0.686-2.008-1.123c-1.022-0.449-1.755-0.911-2.183-1.388
	c-0.518-0.565-0.779-1.302-0.779-2.209c0-1.016,0.407-1.859,1.207-2.532c0.806-0.675,1.839-1.012,3.106-1.012
	c0.971,0,1.843,0.188,2.616,0.574v1.97c-0.808-0.581-1.729-0.872-2.777-0.872c-0.647,0-1.167,0.161-1.557,0.477
	c-0.392,0.321-0.587,0.73-0.587,1.231c0,0.542,0.164,0.962,0.491,1.266c0.29,0.278,0.906,0.618,1.834,1.013
	c1.045,0.439,1.799,0.894,2.258,1.355C82.165,13.437,82.467,14.182,82.467,15.09"/>
<path fill="#3F403F" d="M94.429,12.27c0-1.565-0.354-2.764-1.062-3.584c-0.687-0.785-1.644-1.18-2.877-1.18
	c-1.218,0-2.193,0.398-2.928,1.195c-0.77,0.854-1.155,2.057-1.155,3.617c0,1.462,0.369,2.611,1.102,3.431
	c0.745,0.824,1.738,1.237,2.981,1.237c1.289,0,2.271-0.42,2.947-1.252C94.097,14.918,94.429,13.764,94.429,12.27 M96.44,12.2
	c0,1.948-0.557,3.515-1.654,4.688c-1.097,1.178-2.576,1.767-4.439,1.767c-1.839,0-3.298-0.589-4.369-1.767
	c-1.05-1.135-1.579-2.635-1.579-4.499c0-2.129,0.603-3.769,1.791-4.934c1.106-1.079,2.586-1.622,4.441-1.622
	c1.825,0,3.247,0.568,4.271,1.693C95.92,8.66,96.44,10.218,96.44,12.2"/>
<path fill="#3F403F" d="M105.064,1.978c-0.384-0.213-0.812-0.321-1.301-0.321c-1.369,0-2.05,0.863-2.05,2.592v1.885h2.863v1.66
	h-2.863V18.36h-1.96V7.793h-2.079v-1.66h2.079V4.151c0-1.345,0.413-2.401,1.252-3.161c0.718-0.662,1.596-0.99,2.64-0.99
	c0.607,0,1.078,0.072,1.419,0.212V1.978z"/>
<path fill="#3F403F" d="M112.789,18.24c-0.462,0.264-1.079,0.395-1.839,0.395c-2.135,0-3.201-1.202-3.201-3.611v-7.23h-2.098v-1.66
	h2.098V3.148c0.626-0.196,1.274-0.41,1.962-0.635v3.619h3.078v1.66h-3.078v6.901c0,0.819,0.135,1.404,0.414,1.745
	c0.285,0.353,0.745,0.523,1.397,0.523c0.489,0,0.911-0.131,1.267-0.395V18.24z"/>
<path fill="#3F403F" d="M6.981,66.088c0,0.957-0.339,1.785-1.032,2.485c-0.69,0.699-1.524,1.05-2.506,1.05
	c-0.958,0-1.774-0.351-2.44-1.05C0.332,67.875,0,67.045,0,66.088c0-0.987,0.332-1.818,1.003-2.506
	c0.666-0.692,1.484-1.035,2.44-1.035c0.981,0,1.815,0.347,2.506,1.046C6.643,64.295,6.981,65.126,6.981,66.088"/>
<path fill="#3F403F" d="M50.807,68.903h-6.384L21.25,33.117c-0.542-0.858-1.008-1.795-1.405-2.816h-0.19
	c0.168,0.958,0.248,3.014,0.248,6.165v32.438h-5.26V24.007h6.829l22.478,35.221c0.895,1.399,1.508,2.401,1.818,3.004h0.127
	c-0.21-1.292-0.318-3.494-0.318-6.603V24.008h5.232v44.896H50.807L50.807,68.903z"/>
<path fill="#3F403F" d="M84.542,68.903H60.747V24.007H83.51v4.758H66.005v14.937h16.22v4.759h-16.22v15.684h18.537V68.903
	L84.542,68.903z"/>
<path fill="#3F403F" d="M120.633,28.765h-12.931v40.139h-5.262V28.765H89.483v-4.761h31.149V28.765z"/>
</svg>
