<?xml version="1.0" encoding="utf-8"?>
<!-- Generator: Adobe Illustrator 16.0.3, SVG Export Plug-In . SVG Version: 6.00 Build 0)  -->
<!DOCTYPE svg PUBLIC "-//W3C//DTD SVG 1.1//EN" "http://www.w3.org/Graphics/SVG/1.1/DTD/svg11.dtd">
<svg version="1.1" id="Layer_1" xmlns="http://www.w3.org/2000/svg" xmlns:xlink="http://www.w3.org/1999/xlink" x="0px" y="0px"
	 width="86.188px" height="105.127px" viewBox="0 0 86.188 105.127" enable-background="new 0 0 86.188 105.127"
	 xml:space="preserve">
<path fill="#3F403F" d="M43.093,67.392c6.183,6.012,12.277,9.567,17.189,9.567c1.607,0,3.132-0.339,4.401-1.1
	c4.402-2.541,6.012-8.891,4.487-17.949c-0.253-1.608-0.593-3.219-1.016-4.912c1.692-0.508,3.216-1.015,4.74-1.522
	c8.553-3.301,13.293-7.874,13.293-12.869c0-5.079-4.74-9.651-13.293-12.87c-1.524-0.593-3.048-1.1-4.74-1.523
	c0.423-1.692,0.763-3.302,1.016-4.909C70.61,10.074,69.002,3.642,64.6,1.1C63.328,0.338,61.807,0,60.195,0
	C55.37,0,49.189,3.555,43.01,9.565C36.912,3.555,30.818,0,25.906,0c-1.607,0-3.132,0.338-4.402,1.1
	c-4.401,2.542-6.01,8.89-4.487,17.949c0.254,1.608,0.593,3.217,1.018,4.911c-1.692,0.509-3.217,1.015-4.741,1.524
	C4.742,28.785,0,33.357,0,38.353c0,5.079,4.742,9.651,13.293,12.868c1.524,0.592,3.049,1.102,4.741,1.523
	c-0.425,1.695-0.764,3.303-1.018,4.912c-1.438,9.059,0.17,15.493,4.487,17.949c1.271,0.762,2.795,1.102,4.402,1.102
	C30.818,76.874,36.912,73.318,43.093,67.392L43.093,67.392z M38.353,55.963c1.524,0.084,3.133,0.084,4.74,0.084
	c1.61,0,3.219,0,4.743-0.084c-1.524,2.032-3.133,3.894-4.743,5.673C41.485,59.856,39.877,57.995,38.353,55.963z M27.854,47.243
	c0.848,1.438,1.61,2.792,2.542,4.147c-2.626-0.338-5.081-0.763-7.451-1.27c0.762-2.285,1.608-4.656,2.625-7.028
	C26.246,44.447,27.008,45.888,27.854,47.243z M22.944,26.838c2.37-0.509,4.825-0.932,7.451-1.27
	c-0.848,1.354-1.694,2.708-2.542,4.148c-0.846,1.439-1.607,2.793-2.284,4.233C24.469,31.494,23.621,29.124,22.944,26.838z
	 M27.601,38.437c1.101-2.286,2.286-4.572,3.641-6.858c1.271-2.2,2.709-4.401,4.149-6.604c2.54-0.17,5.079-0.254,7.702-0.254
	c2.71,0,5.251,0.084,7.705,0.254c1.524,2.202,2.878,4.403,4.15,6.604c1.354,2.286,2.539,4.572,3.64,6.858
	c-1.101,2.287-2.286,4.573-3.64,6.858c-1.272,2.201-2.71,4.401-4.15,6.604c-2.54,0.169-5.079,0.253-7.705,0.253
	c-2.709,0-5.249-0.084-7.702-0.253c-1.524-2.203-2.878-4.403-4.149-6.604C29.887,43.01,28.701,40.724,27.601,38.437L27.601,38.437z
	 M60.705,33.864l-2.286-4.233c-0.847-1.438-1.608-2.793-2.54-4.146c2.625,0.336,5.079,0.761,7.449,1.268
	C62.567,29.124,61.72,31.494,60.705,33.864L60.705,33.864z M60.705,43.01c1.015,2.37,1.862,4.739,2.623,7.025
	c-2.37,0.509-4.824,0.933-7.449,1.271c0.846-1.355,1.693-2.709,2.54-4.15C59.181,45.888,59.943,44.447,60.705,43.01L60.705,43.01z
	 M62.651,72.387c-0.678,0.424-1.524,0.593-2.456,0.593c-4.147,0-9.312-3.385-14.393-8.466c2.455-2.624,4.828-5.589,7.197-8.891
	c3.979-0.339,7.788-0.932,11.346-1.777c0.423,1.524,0.677,3.049,0.932,4.573C66.463,65.615,65.531,70.779,62.651,72.387z
	 M67.055,27.77c9.482,2.71,15.154,6.857,15.154,10.667c0,3.302-3.895,6.604-10.751,9.229c-1.356,0.509-2.88,1.015-4.403,1.438
	c-1.102-3.471-2.455-7.025-4.149-10.667C64.6,34.795,66.037,31.24,67.055,27.77L67.055,27.77z M60.282,3.894
	c0.932,0,1.691,0.171,2.453,0.593c2.796,1.608,3.811,6.689,2.626,13.971c-0.254,1.439-0.593,2.963-0.932,4.571
	c-3.555-0.763-7.366-1.355-11.346-1.778c-2.286-3.302-4.74-6.266-7.196-8.889C50.968,7.365,56.132,3.894,60.282,3.894z
	 M47.836,20.911c-1.524-0.083-3.133-0.083-4.743-0.083c-1.607,0-3.216,0-4.74,0.083c1.524-2.03,3.133-3.895,4.74-5.671
	C44.703,17.017,46.312,18.965,47.836,20.911z M23.537,4.486c0.676-0.422,1.523-0.593,2.456-0.593c4.147,0,9.312,3.386,14.391,8.468
	c-2.453,2.623-4.823,5.587-7.196,8.889c-3.978,0.339-7.787,0.932-11.345,1.778c-0.423-1.524-0.677-3.049-0.932-4.571
	C19.727,11.26,20.657,6.181,23.537,4.486L23.537,4.486z M19.134,49.104C9.652,46.396,3.978,42.248,3.978,38.437
	c0-3.301,3.896-6.603,10.753-9.228c1.354-0.509,2.879-1.017,4.403-1.439c1.102,3.471,2.455,7.025,4.149,10.667
	C21.589,42.078,20.148,45.719,19.134,49.104z M20.911,58.419c0.255-1.44,0.593-2.965,0.932-4.573
	c3.558,0.762,7.367,1.354,11.345,1.777c2.287,3.302,4.743,6.267,7.196,8.891c-5.079,4.994-10.243,8.466-14.391,8.466
	c-0.933,0-1.694-0.169-2.456-0.593C20.657,70.779,19.727,65.615,20.911,58.419z M17.356,93.301c1.863-2.287,1.947-4.827,0.932-7.367
	c-1.018-2.54-3.132-3.726-5.758-3.809c-3.132-0.087-6.35,0-9.481,0H2.456v21.926h2.539v-8.297h3.98c0.506,0,0.931,0.17,1.186,0.595
	l5.079,7.872c0.083,0.169,0.338,0.424,0.509,0.424h3.301c-2.033-3.133-3.98-6.095-6.011-9.144
	C14.817,95.247,16.342,94.654,17.356,93.301z M4.995,93.131v-8.383h0.932c1.947,0,3.979-0.084,5.926,0.086
	c2.286,0.084,3.896,1.86,3.896,4.147c0,2.286-1.864,4.063-4.15,4.149C9.565,93.214,7.535,93.131,4.995,93.131z M37.76,94.232
	c-1.354-5.928-6.771-7.451-10.922-5.591c-3.217,1.44-4.656,4.233-4.74,7.707c-0.085,2.624,0.677,4.993,2.71,6.772
	c2.284,2.031,5.079,2.284,7.957,1.777c1.608-0.338,3.049-1.102,4.147-2.285c-0.422-0.593-0.845-1.186-1.268-1.694
	c-2.372,2.033-4.996,2.71-7.875,1.354c-1.863-0.932-2.793-3.217-2.962-4.909h13.123v-1.102
	C38.014,95.501,37.931,94.824,37.76,94.232L37.76,94.232z M24.977,95.585c-0.255-2.54,2.284-5.249,5.08-5.249
	c3.216-0.084,5.248,1.863,5.334,5.249H24.977z M50.968,88.219c-1.269-0.252-2.624-0.339-3.895-0.252
	c-2.031,0.168-3.811,1.1-5.249,2.624c0.424,0.593,0.763,1.186,1.269,1.862c0.17-0.171,0.339-0.34,0.509-0.423
	c1.354-1.272,2.963-1.948,4.912-1.778c1.522,0.084,2.962,0.593,3.386,2.117c0.339,1.186,0.255,2.455,0.339,3.725
	c-0.254,0-0.339-0.084-0.423-0.17c-2.033-1.691-4.319-2.031-6.773-1.438c-2.286,0.591-3.726,2.369-3.896,4.654
	c-0.168,2.626,1.018,4.572,3.302,5.504c1.439,0.592,3.048,0.592,4.571,0.254c1.186-0.254,1.694-0.932,3.388-1.862v1.102h2.37
	c0-3.388,0.087-7.536,0-11.43C54.777,90.252,53.34,88.728,50.968,88.219L50.968,88.219z M52.154,98.889
	c-0.086,0.252,0,0.506,0,0.762c0,1.777-0.425,2.37-2.118,3.047c-1.185,0.424-2.454,0.594-3.725,0.168
	c-1.439-0.422-2.456-1.692-2.456-3.132c-0.083-1.44,0.848-2.878,2.286-3.301c1.946-0.679,3.726-0.254,5.334,0.932
	C51.984,97.787,52.322,98.209,52.154,98.889z M65.361,90.506c2.2-0.677,4.233-0.254,5.758,1.607l0.252,0.169
	c0.593-0.506,1.102-1.015,1.778-1.607c-0.254-0.253-0.338-0.423-0.507-0.677c-2.455-2.625-7.281-2.965-10.244-0.848
	c-4.149,3.049-4.063,8.975-2.033,12.107c1.947,2.963,4.742,3.979,8.044,3.556c1.947-0.253,3.555-1.185,4.825-2.793
	c-0.592-0.509-1.184-1.016-1.776-1.608c-0.17,0.169-0.255,0.253-0.339,0.423c-2.287,2.54-6.097,2.286-8.128-0.423
	c-1.185-1.61-1.44-3.471-1.102-5.335C62.06,92.962,63.159,91.268,65.361,90.506L65.361,90.506z M82.97,102.021
	c-0.169,0.084-0.252,0.169-0.252,0.169c-0.68,0.508-1.354,0.593-2.117,0.338c-0.762-0.338-0.847-1.016-0.932-1.692v-9.651
	c0-0.17,0,0.17,0.085-0.678h3.216v-2.539h-3.385v-4.234h-2.539v4.572h-2.203c-0.169,0-0.423,0.169-0.423,0.337
	c-0.084,0.593,0,1.018,0,1.864h2.709v10.836c0,1.355,0.34,2.542,1.524,3.219c1.271,0.761,3.726,0.592,4.825-0.34
	c0.17-0.083,0.254-0.424,0.254-0.508C83.479,103.206,83.227,102.613,82.97,102.021z"/>
</svg>
