<?xml version="1.0" encoding="utf-8"?>
<!-- Generator: Adobe Illustrator 16.0.3, SVG Export Plug-In . SVG Version: 6.00 Build 0)  -->
<!DOCTYPE svg PUBLIC "-//W3C//DTD SVG 1.1//EN" "http://www.w3.org/Graphics/SVG/1.1/DTD/svg11.dtd">
<svg version="1.1" id="Layer_1" xmlns="http://www.w3.org/2000/svg" xmlns:xlink="http://www.w3.org/1999/xlink" x="0px" y="0px"
	 width="127.821px" height="29.528px" viewBox="0 0 127.821 29.528" enable-background="new 0 0 127.821 29.528"
	 xml:space="preserve">
<path fill="#3F403F" fill-opacity="0.5" d="M9.405,16.625c-1.619-2.628-3.239-5.864-4.855-7.886H0v19.213h4.044V14.806
	c1.012,0.808,1.214,1.819,1.82,2.631c0.607,0.909,1.216,1.819,1.821,2.629c0.605,0.809,0.911,1.717,1.517,2.629
	c1.72-2.73,2.93-5.258,4.954-8.091v13.349h5.057V8.739h-4.854C12.74,10.761,11.123,13.997,9.405,16.625L9.405,16.625z
	 M123.373,20.774c0.606-0.408,1.214-0.912,1.72-1.316c1.416-0.909,2.021-2.427,2.226-4.045c0.099-0.708,0-1.517,0-2.225
	l-0.103-0.708c-0.203-0.809-0.605-1.517-1.112-2.226c-0.506-0.808-1.315-1.011-1.921-1.516c-1.114-0.305-2.227-0.709-3.439-0.709
	c-2.729,0.101-5.663,0-8.494,0h-0.91v19.821h5.058v-6.069h2.729c1.315,2.024,2.73,4.047,3.942,6.069h4.753
	C126.406,25.929,124.788,22.997,123.373,20.774L123.373,20.774z M122.767,15.716c-0.406,0.709-0.91,1.214-1.82,1.315
	c-0.608,0.102-0.911,0.202-1.517,0.202h-3.239v-5.562h3.947c0.503,0,0.909,0.101,1.313,0.304c0.71,0.302,1.214,0.908,1.518,1.616
	C123.475,14.4,123.373,14.806,122.767,15.716z M24.271,27.952h14.156v-4.045H28.314v-4.449c0-0.101,0.101,0.404,0.203,0.404h8.899
	v-3.034h-9.103v-4.045h10.112V8.739H24.271V27.952z M68.664,23.199c0.1-1.315,0.1-2.528,0.1-3.741c0-0.101-0.1,0.404,0,0.404h9.104
	v-3.034h-9.104v-4.045h10.114V8.739H64.721v19.213h14.157v-4.753H68.664L68.664,23.199z M43.483,11.872h5.766c0,0,0.2,0,0.2,0.104
	V26.74h4.046V12.683h5.055V8.638H43.383C43.483,9.75,43.483,10.659,43.483,11.872L43.483,11.872z"/>
<path fill="#3F403F" d="M105.878,15.067c0.304,0,0.505-0.203,0.505-0.506c0-0.102,0-0.202-0.1-0.305l-6.675-6.166l5.866,6.674
	C105.575,14.968,105.675,15.067,105.878,15.067L105.878,15.067z M107.294,18.506L92.732,5.258l13.248,14.463
	c0.201,0.101,0.402,0.202,0.605,0.202c0.505,0,0.809-0.405,0.809-0.811C107.497,18.81,107.395,18.606,107.294,18.506z
	 M100.924,27.405L79.99,8.091l19.313,21.033c0.205,0.201,0.506,0.404,0.911,0.404c0.607,0,1.212-0.506,1.212-1.215
	C101.325,28.012,101.125,27.605,100.924,27.405z M77.563,0l25.586,27.304c0.201,0.203,0.505,0.302,0.809,0.302
	c0.607,0,1.213-0.505,1.213-1.214c0-0.2-0.101-0.503-0.203-0.705C104.866,25.687,77.563,0,77.563,0L77.563,0z M106.688,22.046
	L85.754,2.729l19.315,21.034c0.203,0.203,0.506,0.403,0.911,0.403c0.605,0,1.211-0.504,1.211-1.212
	C107.091,22.651,106.89,22.247,106.688,22.046z M96.575,28.012C96.575,27.91,96.474,27.91,96.575,28.012L82.013,14.765l13.247,14.46
	c0.201,0.101,0.405,0.203,0.607,0.203c0.505,0,0.809-0.405,0.809-0.811C96.776,28.313,96.676,28.113,96.575,28.012z M85.451,21.337
	l5.866,6.675c0.101,0.102,0.2,0.302,0.402,0.302c0.305,0,0.507-0.2,0.507-0.505c0-0.101,0-0.203-0.101-0.302
	C92.024,27.405,85.451,21.337,85.451,21.337z"/>
</svg>
