<?xml version="1.0" encoding="utf-8"?>
<!-- Generator: Adobe Illustrator 16.0.3, SVG Export Plug-In . SVG Version: 6.00 Build 0)  -->
<!DOCTYPE svg PUBLIC "-//W3C//DTD SVG 1.1//EN" "http://www.w3.org/Graphics/SVG/1.1/DTD/svg11.dtd">
<svg version="1.1" id="Layer_1" xmlns="http://www.w3.org/2000/svg" xmlns:xlink="http://www.w3.org/1999/xlink" x="0px" y="0px"
	 width="93.379px" height="94.409px" viewBox="0 0 93.379 94.409" enable-background="new 0 0 93.379 94.409" xml:space="preserve">
<path fill="#3F403F" fill-opacity="0.5" d="M21.103,70.255V59.511c0-7.434,6.63-13.775,14.269-13.775h22.498
	c6.262,0,10.143-5.375,10.143-11.66V12.627c0-6.104-4.589-10.69-10.702-11.706c-3.87-0.646-7.604-0.938-11.455-0.92
	c-3.85,0.018-7.824,0.345-11.058,0.92c-9.534,1.681-11.563,5.205-11.563,11.706v8.588h22.389v3.196H15.657
	c-6.547,0-12.277,3.765-14.072,11.251c-2.066,8.578-2.159,14.075,0,23.033c1.603,6.668,5.426,11.56,11.972,11.56H21.103z
	 M33.954,15.487c-2.336,0-4.227-1.914-4.227-4.278c0-2.378,1.891-4.306,4.227-4.306c2.327,0,4.226,1.93,4.226,4.306
	C38.18,13.573,36.281,15.487,33.954,15.487z M91.652,35.662c-1.616-6.518-4.707-11.251-11.262-11.251h-9.18v9.664
	c0,7.752-5.847,14.858-13.342,14.858H35.371c-6.164,0-12.137,4.694-12.137,10.867v21.447c0,6.103,5.744,9.693,11.702,11.444
	c7.126,2.096,13.625,2.475,22.154,0c5.671-1.644,10.921-4.947,10.921-11.444v-7.794H45.623v-3.199h34.768
	c6.546,0,8.985-4.706,11.262-11.56C94.005,51.642,93.904,44.714,91.652,35.662z M59.284,78.385c2.336,0,4.229,1.915,4.229,4.282
	c0,2.373-1.893,4.302-4.229,4.302c-2.325,0-4.224-1.931-4.224-4.302C55.061,80.3,56.959,78.385,59.284,78.385z"/>
</svg>
