<svg version="1.1" id="Layer_1" xmlns="http://www.w3.org/2000/svg" xmlns:xlink="http://www.w3.org/1999/xlink" x="0px" y="0px"
	 width="88.224px" height="80.573px" viewBox="0 0 88.224 80.573" enable-background="new 0 0 88.224 80.573" xml:space="preserve">
<path fill="#3F403F" d="M87.203,27.028h-4.895l-1.224,6.12h-3.875l1.223-6.12h-4.997l-1.223,6.12h-5.407v5.098h4.488l-0.917,4.081
	h-3.57v5.098h2.55l-1.224,6.121h4.897l1.224-6.121h3.875l-1.224,6.121H81.9l1.224-6.121h5.1v-5.098h-4.182l0.917-4.081h3.264v-5.098
	H85.98L87.203,27.028z M79.146,42.327h-3.875l0.917-4.081h3.876L79.146,42.327z M40.289,65.274
	c-13.771,0-24.988-11.218-24.988-24.987C15.3,26.517,26.518,15.3,40.289,15.3c9.281,0,17.44,5.099,21.723,12.749l13.259-7.65
	C68.335,8.261,55.28,0,40.289,0C18.054,0,0,18.054,0,40.287s18.054,40.286,40.289,40.286c14.89,0,27.945-8.16,34.881-20.193
	l-13.158-7.754C57.729,60.175,49.569,65.274,40.289,65.274z"/>
</svg>
