<?xml version="1.0" encoding="utf-8"?>
<!-- Generator: Adobe Illustrator 16.0.3, SVG Export Plug-In . SVG Version: 6.00 Build 0)  -->
<!DOCTYPE svg PUBLIC "-//W3C//DTD SVG 1.1//EN" "http://www.w3.org/Graphics/SVG/1.1/DTD/svg11.dtd">
<svg version="1.1" id="Layer_1" xmlns="http://www.w3.org/2000/svg" xmlns:xlink="http://www.w3.org/1999/xlink" x="0px" y="0px"
	 width="88.223px" height="80.573px" viewBox="0 0 88.223 80.573" enable-background="new 0 0 88.223 80.573" xml:space="preserve">
<path fill="#3F403F" d="M64.764,47.427v-5.1h5.099v-4.081h-5.099v-5.099h-5.099v5.099h-5.1v4.081h5.1v5.1H64.764z M83.123,33.147
	h-4.081v5.099h-6.118v4.081h6.118v5.1h4.081v-5.1h5.1v-4.081h-5.1V33.147z M40.286,65.274c-13.769,0-24.989-11.218-24.989-24.987
	c0-13.771,11.22-24.987,24.989-24.987c9.28,0,17.441,5.099,21.724,12.748l13.259-7.649C68.334,8.261,55.279,0,40.286,0
	C18.051,0,0,18.054,0,40.287s18.051,40.286,40.286,40.286c14.89,0,27.946-8.16,34.883-20.193L62.01,52.629
	C57.728,60.175,49.566,65.274,40.286,65.274z"/>
</svg>
