<?xml version="1.0" encoding="utf-8"?>
<!-- Generator: Adobe Illustrator 16.0.3, SVG Export Plug-In . SVG Version: 6.00 Build 0)  -->
<!DOCTYPE svg PUBLIC "-//W3C//DTD SVG 1.1//EN" "http://www.w3.org/Graphics/SVG/1.1/DTD/svg11.dtd">
<svg version="1.1" id="Layer_1" xmlns="http://www.w3.org/2000/svg" xmlns:xlink="http://www.w3.org/1999/xlink" x="0px" y="0px"
	 width="113.192px" height="116.021px" viewBox="0 0 113.192 116.021" enable-background="new 0 0 113.192 116.021"
	 xml:space="preserve">
<g>
	<g>
		<path fill="#3F403F" d="M73.801,58.014l20.304-35.058l9.812,35.058l-9.812,35.052L73.801,58.014L73.801,58.014z M63.906,63.707
			l20.306,35.055l-35.364-9.061L23.296,63.707H63.906L63.906,63.707z M84.208,17.257L63.906,52.317h-40.61L48.847,26.32
			L84.208,17.257L84.208,17.257z M113.192,46.084L100.805,0L54.571,12.35l-6.842,12.033L33.84,24.285L0,58.018l33.84,33.726h0.002
			l13.881-0.103l6.855,12.032l46.227,12.349l12.387-46.075l-7.036-11.933L113.192,46.084L113.192,46.084z"/>
	</g>
</g>
</svg>
