<?xml version="1.0" encoding="utf-8"?>
<!-- Generator: Adobe Illustrator 16.0.0, SVG Export Plug-In . SVG Version: 6.00 Build 0)  -->
<!DOCTYPE svg PUBLIC "-//W3C//DTD SVG 1.1//EN" "http://www.w3.org/Graphics/SVG/1.1/DTD/svg11.dtd">
<svg version="1.1" id="Layer_1" xmlns="http://www.w3.org/2000/svg" xmlns:xlink="http://www.w3.org/1999/xlink" x="0px" y="0px"
	 width="81.498px" height="81.5px" viewBox="0 0 81.498 81.5" enable-background="new 0 0 81.498 81.5" xml:space="preserve">
<circle opacity="0.2" fill="#F7F0D2" cx="40.749" cy="40.749" r="40.749"/>
<g>
	<ellipse opacity="0.05" cx="40.749" cy="40.73" rx="28.032" ry="27.866"/>
	<g>
		<path fill="#F7F0D2" d="M46.059,40.75c0-11.491-7.215-21.293-17.361-25.136c3.657-1.762,7.757-2.75,12.088-2.75
			c15.4,0,27.886,12.485,27.886,27.885c0,15.4-12.485,27.886-27.886,27.886c-4.331,0-8.431-0.987-12.088-2.749
			C38.844,62.044,46.059,52.242,46.059,40.75z"/>
	</g>
</g>
<path fill="#FFFFFF" d="M54.936,56.141l1.382,1.446c9.55-9.132,9.979-24.237,0.955-33.674l-1.445,1.382
	C64.089,33.935,63.688,47.771,54.936,56.141z"/>
<g>
</g>
<g>
</g>
<g>
</g>
<g>
</g>
<g>
</g>
<g>
</g>
<g>
</g>
<g>
</g>
<g>
</g>
<g>
</g>
<g>
</g>
<g>
</g>
<g>
</g>
<g>
</g>
<g>
</g>
</svg>
