<?xml version="1.0" encoding="utf-8"?>
<!-- Generator: Adobe Illustrator 16.0.0, SVG Export Plug-In . SVG Version: 6.00 Build 0)  -->
<!DOCTYPE svg PUBLIC "-//W3C//DTD SVG 1.1//EN" "http://www.w3.org/Graphics/SVG/1.1/DTD/svg11.dtd">
<svg version="1.1" id="Layer_1" xmlns="http://www.w3.org/2000/svg" xmlns:xlink="http://www.w3.org/1999/xlink" x="0px" y="0px"
	 width="101.981px" height="80.811px" viewBox="0 0 101.981 80.811" enable-background="new 0 0 101.981 80.811"
	 xml:space="preserve">
<g>
	<circle opacity="0.2" fill="#F7F0D2" cx="67.909" cy="34.071" r="34.072"/>
	<g>
		<ellipse opacity="0.05" cx="67.909" cy="34.056" rx="23.439" ry="23.301"/>
		<g>
			<path fill="#F7F0D2" d="M72.349,34.073c0-9.609-6.033-17.805-14.517-21.017c3.059-1.474,6.486-2.299,10.107-2.299
				c12.877,0,23.316,10.44,23.316,23.316c0,12.878-10.439,23.316-23.316,23.316c-3.62,0-7.049-0.825-10.106-2.299
				C66.317,51.877,72.349,43.682,72.349,34.073z"/>
		</g>
	</g>
	<path fill="#FFFFFF" d="M79.772,46.941l1.154,1.209c7.985-7.636,8.344-20.266,0.799-28.156l-1.208,1.156
		C87.424,28.374,87.089,39.943,79.772,46.941z"/>
</g>
<path fill="#FFFEFB" d="M76.426,37.999c-4.277,0-8.254,1.269-11.6,3.432c-3.064-14.909-16.26-26.12-32.077-26.12
	C14.662,15.311,0,29.974,0,48.061s14.662,32.75,32.75,32.75h43.676l0,0l0,0c11.82,0,21.406-9.584,21.406-21.406
	C97.833,47.583,88.247,37.999,76.426,37.999z"/>
<g>
</g>
<g>
</g>
<g>
</g>
<g>
</g>
<g>
</g>
<g>
</g>
<g>
</g>
<g>
</g>
<g>
</g>
<g>
</g>
<g>
</g>
<g>
</g>
<g>
</g>
<g>
</g>
<g>
</g>
</svg>
