<?xml version="1.0" encoding="utf-8"?>
<!-- Generator: Adobe Illustrator 16.0.0, SVG Export Plug-In . SVG Version: 6.00 Build 0)  -->
<!DOCTYPE svg PUBLIC "-//W3C//DTD SVG 1.1//EN" "http://www.w3.org/Graphics/SVG/1.1/DTD/svg11.dtd">
<svg version="1.1" id="Layer_1" xmlns="http://www.w3.org/2000/svg" xmlns:xlink="http://www.w3.org/1999/xlink" x="0px" y="0px"
	 width="125.322px" height="78.167px" viewBox="0 0 125.322 78.167" enable-background="new 0 0 125.322 78.167"
	 xml:space="preserve">
<path fill="#7F7F7F" d="M103.917,22.688c-4.278,0-8.255,1.269-11.6,3.432C89.252,11.211,76.057,0,60.24,0
	C42.152,0,27.49,14.663,27.49,32.75c0,18.086,14.662,32.75,32.75,32.75h43.676l0,0h0.001c11.82,0,21.405-9.584,21.405-21.406
	S115.737,22.688,103.917,22.688z"/>
<path fill="#FFFEFB" d="M76.427,35.354c-4.278,0-8.255,1.269-11.6,3.432c-3.065-14.908-16.261-26.12-32.077-26.12
	C14.662,12.667,0,27.33,0,45.417s14.662,32.75,32.75,32.75h43.676l0,0h0.001c11.82,0,21.405-9.584,21.405-21.406
	S88.247,35.354,76.427,35.354z"/>
<g>
</g>
<g>
</g>
<g>
</g>
<g>
</g>
<g>
</g>
<g>
</g>
<g>
</g>
<g>
</g>
<g>
</g>
<g>
</g>
<g>
</g>
<g>
</g>
<g>
</g>
<g>
</g>
<g>
</g>
</svg>
