<?xml version="1.0" encoding="utf-8"?>
<!-- Generator: Adobe Illustrator 16.0.0, SVG Export Plug-In . SVG Version: 6.00 Build 0)  -->
<!DOCTYPE svg PUBLIC "-//W3C//DTD SVG 1.1//EN" "http://www.w3.org/Graphics/SVG/1.1/DTD/svg11.dtd">
<svg version="1.1" id="Layer_1" xmlns="http://www.w3.org/2000/svg" xmlns:xlink="http://www.w3.org/1999/xlink" x="0px" y="0px"
	 width="104.62px" height="102.349px" viewBox="0 0 104.62 102.349" enable-background="new 0 0 104.62 102.349"
	 xml:space="preserve">
<g>
	<circle fill="#FCE375" cx="67.908" cy="36.515" r="21.897"/>
	<circle opacity="0.2" fill="#FCE375" cx="67.909" cy="36.711" r="36.711"/>
	<path fill="#FFFFFF" d="M50.886,36.29h-1.571c0-10.376,8.341-18.817,18.594-18.817v1.57C58.522,19.043,50.886,26.78,50.886,36.29z"
		/>
</g>
<path fill="#FFFEFB" d="M76.427,40.441c-4.278,0-8.255,1.269-11.6,3.432c-3.065-14.908-16.261-26.12-32.077-26.12
	C14.662,17.753,0,32.417,0,50.503s14.662,32.75,32.75,32.75h43.676l0,0h0.001c11.82,0,21.405-9.584,21.405-21.406
	C97.832,50.025,88.247,40.441,76.427,40.441z"/>
<g>
	<path fill="#7FADEF" d="M20.947,101.642c-0.389,0.389-1.157,0.707-1.707,0.707l0,0c-0.55,0-0.682-0.318-0.293-0.707l14.877-14.877
		c0.389-0.389,1.157-0.707,1.707-0.707l0,0c0.55,0,0.682,0.318,0.293,0.707L20.947,101.642z"/>
</g>
<g>
	<path fill="#7FADEF" d="M34.197,101.642c-0.389,0.389-1.157,0.707-1.707,0.707l0,0c-0.55,0-0.682-0.318-0.293-0.707l14.877-14.877
		c0.389-0.389,1.157-0.707,1.707-0.707l0,0c0.55,0,0.682,0.318,0.293,0.707L34.197,101.642z"/>
</g>
<g>
	<path fill="#7FADEF" d="M47.447,101.642c-0.389,0.389-1.157,0.707-1.707,0.707l0,0c-0.55,0-0.682-0.318-0.293-0.707l14.877-14.877
		c0.389-0.389,1.157-0.707,1.707-0.707l0,0c0.55,0,0.682,0.318,0.293,0.707L47.447,101.642z"/>
</g>
<g>
	<path fill="#7FADEF" d="M60.821,101.642c-0.389,0.389-1.156,0.707-1.707,0.707l0,0c-0.549,0-0.682-0.318-0.293-0.707l14.878-14.877
		c0.389-0.389,1.157-0.707,1.707-0.707l0,0c0.55,0,0.682,0.318,0.293,0.707L60.821,101.642z"/>
</g>
<g>
</g>
<g>
</g>
<g>
</g>
<g>
</g>
<g>
</g>
<g>
</g>
<g>
</g>
<g>
</g>
<g>
</g>
<g>
</g>
<g>
</g>
<g>
</g>
<g>
</g>
<g>
</g>
<g>
</g>
</svg>
