<?xml version="1.0" encoding="utf-8"?>
<!-- Generator: Adobe Illustrator 16.0.0, SVG Export Plug-In . SVG Version: 6.00 Build 0)  -->
<!DOCTYPE svg PUBLIC "-//W3C//DTD SVG 1.1//EN" "http://www.w3.org/Graphics/SVG/1.1/DTD/svg11.dtd">
<svg version="1.1" id="Layer_1" xmlns="http://www.w3.org/2000/svg" xmlns:xlink="http://www.w3.org/1999/xlink" x="0px" y="0px"
	 width="100.771px" height="99.906px" viewBox="0 0 100.771 99.906" enable-background="new 0 0 100.771 99.906"
	 xml:space="preserve">
<g>
	<circle opacity="0.2" fill="#F7F0D2" cx="66.7" cy="34.071" r="34.072"/>
	<g>
		<ellipse opacity="0.05" cx="66.7" cy="34.056" rx="23.439" ry="23.3"/>
		<g>
			<path fill="#F7F0D2" d="M71.14,34.073c0-9.609-6.033-17.805-14.517-21.017c3.059-1.474,6.486-2.299,10.107-2.299
				c12.877,0,23.316,10.44,23.316,23.316c0,12.877-10.439,23.316-23.316,23.316c-3.62,0-7.049-0.824-10.106-2.299
				C65.107,51.876,71.14,43.682,71.14,34.073z"/>
		</g>
	</g>
	<path fill="#FFFFFF" d="M78.563,46.941l1.154,1.209c7.985-7.636,8.344-20.266,0.799-28.156l-1.208,1.156
		C86.215,28.374,85.88,39.943,78.563,46.941z"/>
</g>
<path fill="#FFFEFB" d="M76.427,37.999c-4.278,0-8.255,1.269-11.6,3.432c-3.065-14.908-16.261-26.12-32.077-26.12
	C14.662,15.311,0,29.974,0,48.061c0,18.087,14.662,32.75,32.75,32.75h43.676l0,0h0.001c11.82,0,21.405-9.584,21.405-21.406
	C97.832,47.583,88.247,37.999,76.427,37.999z"/>
<g>
	<path fill="#7FADEF" d="M20.947,99.199c-0.389,0.389-1.157,0.707-1.707,0.707l0,0c-0.55,0-0.682-0.318-0.293-0.707l14.877-14.877
		c0.389-0.389,1.157-0.707,1.707-0.707l0,0c0.55,0,0.682,0.318,0.293,0.707L20.947,99.199z"/>
</g>
<g>
	<path fill="#7FADEF" d="M34.197,99.199c-0.389,0.389-1.157,0.707-1.707,0.707l0,0c-0.55,0-0.682-0.318-0.293-0.707l14.877-14.877
		c0.389-0.389,1.157-0.707,1.707-0.707l0,0c0.55,0,0.682,0.318,0.293,0.707L34.197,99.199z"/>
</g>
<g>
	<path fill="#7FADEF" d="M47.447,99.199c-0.389,0.389-1.157,0.707-1.707,0.707l0,0c-0.55,0-0.682-0.318-0.293-0.707l14.877-14.877
		c0.389-0.389,1.157-0.707,1.707-0.707l0,0c0.55,0,0.682,0.318,0.293,0.707L47.447,99.199z"/>
</g>
<g>
	<path fill="#7FADEF" d="M60.822,99.199c-0.389,0.389-1.158,0.707-1.707,0.707l0,0c-0.551,0-0.682-0.318-0.293-0.707l14.877-14.877
		c0.389-0.389,1.157-0.707,1.707-0.707l0,0c0.55,0,0.682,0.318,0.293,0.707L60.822,99.199z"/>
</g>
<g>
</g>
<g>
</g>
<g>
</g>
<g>
</g>
<g>
</g>
<g>
</g>
<g>
</g>
<g>
</g>
<g>
</g>
<g>
</g>
<g>
</g>
<g>
</g>
<g>
</g>
<g>
</g>
<g>
</g>
</svg>
