<?xml version="1.0" encoding="utf-8"?>
<!-- Generator: Adobe Illustrator 16.0.0, SVG Export Plug-In . SVG Version: 6.00 Build 0)  -->
<!DOCTYPE svg PUBLIC "-//W3C//DTD SVG 1.1//EN" "http://www.w3.org/Graphics/SVG/1.1/DTD/svg11.dtd">
<svg version="1.1" id="Layer_1" xmlns="http://www.w3.org/2000/svg" xmlns:xlink="http://www.w3.org/1999/xlink" x="0px" y="0px"
	 width="125.322px" height="112.45px" viewBox="0 0 125.322 112.45" enable-background="new 0 0 125.322 112.45"
	 xml:space="preserve">
<polygon fill="#FCE375" points="60.1,76.833 67.455,76.833 64.265,82.471 69.832,82.471 53.389,102.783 59.289,89.798 
	52.271,89.798 "/>
<polygon fill="#FCE375" points="38.695,76.833 48.789,76.833 44.411,84.573 52.051,84.573 29.483,112.45 37.581,94.628 
	27.949,94.628 "/>
<path fill="#7F7F7F" d="M103.917,22.688c-4.279,0-8.256,1.269-11.6,3.432C89.251,11.211,76.056,0,60.24,0
	C42.152,0,27.49,14.663,27.49,32.75S42.152,65.5,60.24,65.5h43.675l0,0h0.002c11.82,0,21.404-9.584,21.404-21.407
	C125.322,32.272,115.738,22.688,103.917,22.688z"/>
<path fill="#FFFEFB" d="M76.427,35.354c-4.279,0-8.256,1.269-11.6,3.432c-3.066-14.908-16.261-26.12-32.078-26.12
	C14.662,12.667,0,27.33,0,45.417s14.662,32.75,32.75,32.75h43.675l0,0h0.002c11.82,0,21.404-9.584,21.404-21.406
	C97.832,44.938,88.248,35.354,76.427,35.354z"/>
<g>
</g>
<g>
</g>
<g>
</g>
<g>
</g>
<g>
</g>
<g>
</g>
<g>
</g>
<g>
</g>
<g>
</g>
<g>
</g>
<g>
</g>
<g>
</g>
<g>
</g>
<g>
</g>
<g>
</g>
</svg>
