<?xml version="1.0" encoding="utf-8"?>
<!-- Generator: Adobe Illustrator 16.0.0, SVG Export Plug-In . SVG Version: 6.00 Build 0)  -->
<!DOCTYPE svg PUBLIC "-//W3C//DTD SVG 1.1//EN" "http://www.w3.org/Graphics/SVG/1.1/DTD/svg11.dtd">
<svg version="1.1" id="Layer_1" xmlns="http://www.w3.org/2000/svg" xmlns:xlink="http://www.w3.org/1999/xlink" x="0px" y="0px"
	 width="125.322px" height="113.219px" viewBox="0 0 125.322 113.219" enable-background="new 0 0 125.322 113.219"
	 xml:space="preserve">
<path fill="#7F7F7F" d="M103.917,22.688c-4.279,0-8.256,1.269-11.6,3.432C89.251,11.211,76.056,0,60.24,0
	C42.152,0,27.49,14.663,27.49,32.75S42.152,65.5,60.24,65.5h43.675l0,0h0.002c11.82,0,21.404-9.584,21.404-21.406
	C125.322,32.272,115.738,22.688,103.917,22.688z"/>
<path fill="#FFFEFB" d="M76.427,35.354c-4.279,0-8.256,1.269-11.6,3.432c-3.066-14.908-16.261-26.12-32.078-26.12
	C14.662,12.667,0,27.33,0,45.417c0,18.087,14.662,32.75,32.75,32.75h43.675l0,0h0.002c11.82,0,21.404-9.584,21.404-21.406
	C97.832,44.938,88.248,35.354,76.427,35.354z"/>
<polygon fill="#7FADEF" points="52.177,93.871 51.82,93.254 47.845,95.551 42.944,92.721 47.846,89.891 51.82,92.188 52.177,91.57 
	48.558,89.479 53.641,86.545 53.284,85.928 48.205,88.859 48.207,84.688 47.494,84.687 47.492,89.271 42.587,92.104 42.587,86.441 
	46.561,84.148 46.204,83.531 42.587,85.619 42.587,79.752 41.875,79.752 41.875,85.619 38.258,83.531 37.902,84.148 41.875,86.441 
	41.875,92.104 36.971,89.271 36.969,84.687 36.256,84.688 36.257,88.859 31.178,85.928 30.822,86.545 35.904,89.479 32.286,91.57 
	32.642,92.188 36.617,89.891 41.519,92.721 36.617,95.551 32.642,93.254 32.286,93.871 35.904,95.961 30.822,98.896 31.178,99.514 
	36.257,96.58 36.256,100.754 36.969,100.754 36.971,96.169 41.875,93.338 41.875,98.999 37.902,101.293 38.258,101.91 
	41.875,99.822 41.875,105.689 42.587,105.689 42.587,99.822 46.204,101.91 46.561,101.293 42.587,98.999 42.587,93.338 
	47.492,96.169 47.494,100.754 48.207,100.754 48.205,96.58 53.284,99.514 53.641,98.896 48.558,95.961 "/>
<polygon fill="#7FADEF" points="71.538,90.696 71.314,90.311 68.827,91.748 65.759,89.977 68.828,88.206 71.314,89.643 
	71.538,89.257 69.273,87.947 72.454,86.112 72.23,85.727 69.052,87.561 69.052,84.949 68.607,84.949 68.605,87.818 65.537,89.59 
	65.537,86.048 68.023,84.611 67.8,84.227 65.537,85.531 65.537,81.86 65.09,81.86 65.09,85.531 62.827,84.227 62.604,84.611 
	65.09,86.048 65.09,89.59 62.021,87.818 62.02,84.949 61.574,84.949 61.574,87.561 58.396,85.727 58.173,86.112 61.354,87.947 
	59.089,89.257 59.313,89.643 61.8,88.206 64.867,89.977 61.801,91.748 59.313,90.311 59.089,90.696 61.354,92.004 58.173,93.842 
	58.396,94.229 61.574,92.393 61.574,95.004 62.02,95.004 62.021,92.135 65.09,90.363 65.09,93.906 62.604,95.342 62.827,95.728 
	65.09,94.421 65.09,98.093 65.537,98.093 65.537,94.421 67.8,95.728 68.023,95.342 65.537,93.906 65.537,90.361 68.605,92.135 
	68.607,95.004 69.052,95.004 69.052,92.393 72.23,94.229 72.454,93.842 69.273,92.004 "/>
<polygon fill="#7FADEF" points="64.588,107.365 64.412,107.061 62.442,108.198 60.015,106.796 62.443,105.394 64.412,106.531 
	64.588,106.227 62.795,105.19 65.314,103.737 65.136,103.432 62.621,104.884 62.621,102.817 62.269,102.817 62.268,105.089 
	59.839,106.49 59.839,103.687 61.806,102.55 61.629,102.245 59.839,103.277 59.839,100.372 59.486,100.372 59.486,103.277 
	57.695,102.245 57.518,102.55 59.486,103.687 59.486,106.49 57.057,105.089 57.056,102.817 56.704,102.817 56.704,104.884 
	54.188,103.432 54.011,103.737 56.528,105.19 54.737,106.227 54.913,106.531 56.881,105.394 59.309,106.796 56.882,108.198 
	54.913,107.061 54.737,107.365 56.528,108.4 54.011,109.854 54.188,110.16 56.704,108.709 56.704,110.774 57.056,110.774 
	57.057,108.504 59.486,107.102 59.486,109.906 57.518,111.042 57.695,111.348 59.486,110.313 59.486,113.219 59.839,113.219 
	59.839,110.313 61.629,111.348 61.806,111.042 59.839,109.906 59.839,107.102 62.268,108.504 62.269,110.774 62.621,110.774 
	62.621,108.709 65.136,110.16 65.314,109.854 62.795,108.4 "/>
<g>
</g>
<g>
</g>
<g>
</g>
<g>
</g>
<g>
</g>
<g>
</g>
<g>
</g>
<g>
</g>
<g>
</g>
<g>
</g>
<g>
</g>
<g>
</g>
<g>
</g>
<g>
</g>
<g>
</g>
</svg>
